<svg width="758" height="600"><defs><linearGradient id="type-grad-sankey-diagram-type-Requirement-Architecture" gradientUnits="userSpaceOnUse" x1="79.80000000000001" y1="77" x2="207.4" y2="44"><stop offset="0%" stop-color="#e74c3c"></stop><stop offset="100%" stop-color="#3498db"></stop></linearGradient><linearGradient id="type-grad-sankey-diagram-type-Architecture-Implementation" gradientUnits="userSpaceOnUse" x1="223.4" y1="38.5" x2="351" y2="66"><stop offset="0%" stop-color="#3498db"></stop><stop offset="100%" stop-color="#2ecc71"></stop></linearGradient><linearGradient id="type-grad-sankey-diagram-type-Implementation-Unit_test" gradientUnits="userSpaceOnUse" x1="367" y1="60.5" x2="494.59999999999997" y2="258.5"><stop offset="0%" stop-color="#2ecc71"></stop><stop offset="100%" stop-color="#f39c12"></stop></linearGradient><linearGradient id="type-grad-sankey-diagram-type-Unit_test-Integration_test" gradientUnits="userSpaceOnUse" x1="510.59999999999997" y1="22" x2="638.2" y2="49.5"><stop offset="0%" stop-color="#f39c12"></stop><stop offset="100%" stop-color="#9b59b6"></stop></linearGradient></defs><g transform="translate(20,30)"><path d="M79.80000000000001,0C143.60000000000002,0 143.60000000000002,0 207.4,0L207.4,88C143.60000000000002,88 143.60000000000002,154 79.80000000000001,154Z" fill="url(#type-grad-sankey-diagram-type-Requirement-Architecture)" opacity="0.25" stroke="none"></path><path d="M223.4,0C287.2,0 287.2,0 351,0L351,132C287.2,132 287.2,77 223.4,77Z" fill="url(#type-grad-sankey-diagram-type-Architecture-Implementation)" opacity="0.25" stroke="none"></path><path d="M367,0C430.79999999999995,0 430.79999999999995,0 494.59999999999997,0L494.59999999999997,517C430.79999999999995,517 430.79999999999995,121 367,121Z" fill="url(#type-grad-sankey-diagram-type-Implementation-Unit_test)" opacity="0.25" stroke="none"></path><path d="M510.59999999999997,0C574.4,0 574.4,0 638.2,0L638.2,99C574.4,99 574.4,44 510.59999999999997,44Z" fill="url(#type-grad-sankey-diagram-type-Unit_test-Integration_test)" opacity="0.25" stroke="none"></path><g class="parallel-bars"><text x="71.80000000000001" y="-10" text-anchor="middle" font-size="12px" fill="#333">Requirement</text><rect x="63.80000000000001" y="0" width="16" height="176" fill="#e74c3c" stroke="#333" stroke-width="1"></rect><rect x="71.80000000000001" y="0" width="8" height="154" fill="#e74c3c" stroke="none"></rect><text x="57.80000000000001" y="10" dy="0.35em" text-anchor="end" font-size="11px" fill="#333">0%</text><text x="85.80000000000001" y="77" dy="0.35em" text-anchor="start" font-size="11px" fill="#333">88%</text><text x="215.4" y="-10" text-anchor="middle" font-size="12px" fill="#333">Architecture</text><rect x="207.4" y="0" width="16" height="88" fill="#3498db" stroke="#333" stroke-width="1"></rect><rect x="207.4" y="0" width="8" height="88" fill="#3498db" stroke="none"></rect><rect x="215.4" y="0" width="8" height="77" fill="#3498db" stroke="none"></rect><text x="201.4" y="44" dy="0.35em" text-anchor="end" font-size="11px" fill="#333">100%</text><text x="229.4" y="38.5" dy="0.35em" text-anchor="start" font-size="11px" fill="#333">88%</text><text x="359" y="-10" text-anchor="middle" font-size="12px" fill="#333">Implementation</text><rect x="351" y="0" width="16" height="132" fill="#2ecc71" stroke="#333" stroke-width="1"></rect><rect x="351" y="0" width="8" height="132" fill="#2ecc71" stroke="none"></rect><rect x="359" y="0" width="8" height="121" fill="#2ecc71" stroke="none"></rect><text x="345" y="66" dy="0.35em" text-anchor="end" font-size="11px" fill="#333">100%</text><text x="373" y="60.5" dy="0.35em" text-anchor="start" font-size="11px" fill="#333">92%</text><text x="502.59999999999997" y="-10" text-anchor="middle" font-size="12px" fill="#333">Unit test</text><rect x="494.59999999999997" y="0" width="16" height="550" fill="#f39c12" stroke="#333" stroke-width="1"></rect><rect x="494.59999999999997" y="0" width="8" height="517" fill="#f39c12" stroke="none"></rect><rect x="502.59999999999997" y="0" width="8" height="44" fill="#f39c12" stroke="none"></rect><text x="488.59999999999997" y="258.5" dy="0.35em" text-anchor="end" font-size="11px" fill="#333">94%</text><text x="516.5999999999999" y="22" dy="0.35em" text-anchor="start" font-size="11px" fill="#333">8%</text><text x="646.2" y="-10" text-anchor="middle" font-size="12px" fill="#333">Integration test</text><rect x="638.2" y="0" width="16" height="99" fill="#9b59b6" stroke="#333" stroke-width="1"></rect><rect x="638.2" y="0" width="8" height="99" fill="#9b59b6" stroke="none"></rect><text x="632.2" y="49.5" dy="0.35em" text-anchor="end" font-size="11px" fill="#333">100%</text><text x="660.2" y="10" dy="0.35em" text-anchor="start" font-size="11px" fill="#333">0%</text></g></g></svg>
